<svg xmlns="http://www.w3.org/2000/svg" version="1.1" xmlns:xlink="http://www.w3.org/1999/xlink" viewBox="0 0 200 200" width="200" height="200"><metadata><rdf:RDF xmlns:rdf="http://www.w3.org/1999/02/22-rdf-syntax-ns#" xmlns:dc="http://purl.org/dc/elements/1.1/"><rdf:Description><dc:creator>RealFaviconGenerator</dc:creator><dc:source>https://realfavicongenerator.net</dc:source></rdf:Description></rdf:RDF></metadata><rect width="200" height="200" fill="url('#gradient')"></rect><defs><linearGradient id="gradient" gradientTransform="rotate(45 0.5 0.5)"><stop offset="0%" stop-color="#dee90b"></stop><stop offset="100%" stop-color="#d9e241"></stop></linearGradient></defs><g><g fill="#1b3855" transform="matrix(3.6651421753827798,0,0,3.6651421753827798,7.770563492530343,119.846781298853)" stroke="#0e5278" stroke-width="0.2"><path d="M11.65-12.46L4.92-2.64L11.72-2.64L11.72 0L0.64 0L0.64-1.81L7.42-11.57L0.61-11.57L0.61-14.22L11.65-14.22L11.65-12.46ZM22.36 0L19.07 0Q18.90-0.32 18.76-0.95L18.76-0.95Q17.85 0.20 16.22 0.20L16.22 0.20Q14.73 0.20 13.68-0.71Q12.64-1.61 12.64-2.98L12.64-2.98Q12.64-4.70 13.91-5.58Q15.18-6.46 17.60-6.46L17.60-6.46L18.61-6.46L18.61-7.01Q18.61-8.47 17.35-8.47L17.35-8.47Q16.18-8.47 16.18-7.31L16.18-7.31L12.89-7.31Q12.89-8.85 14.19-9.80Q15.50-10.76 17.52-10.76Q19.54-10.76 20.71-9.78Q21.88-8.79 21.91-7.07L21.91-7.07L21.91-2.39Q21.93-0.94 22.36-0.17L22.36-0.17L22.36 0ZM17.01-2.15L17.01-2.15Q17.63-2.15 18.03-2.41Q18.44-2.68 18.61-3.01L18.61-3.01L18.61-4.70L17.66-4.70Q15.94-4.70 15.94-3.15L15.94-3.15Q15.94-2.71 16.24-2.43Q16.54-2.15 17.01-2.15ZM27.21-10.57L27.21 0L23.91 0L23.91-10.57L27.21-10.57ZM23.71-13.29L23.71-13.29Q23.71-13.99 24.22-14.44Q24.73-14.89 25.54-14.89Q26.35-14.89 26.86-14.44Q27.36-13.99 27.36-13.29Q27.36-12.59 26.86-12.14Q26.35-11.69 25.54-11.69Q24.73-11.69 24.22-12.14Q23.71-12.59 23.71-13.29ZM28.82-5.39L28.82-5.39Q28.82-7.91 29.91-9.34Q31.01-10.76 32.93-10.76L32.93-10.76Q34.55-10.76 35.53-9.43L35.53-9.43L35.76-10.57L38.61-10.57L38.61 4.06L35.31 4.06L35.31-0.88Q34.37 0.20 32.91 0.20L32.91 0.20Q31.04 0.20 29.93-1.25Q28.82-2.71 28.82-5.39ZM32.12-5.77L32.11-5.19Q32.11-2.34 33.75-2.34L33.75-2.34Q34.88-2.34 35.31-3.20L35.31-3.20L35.31-7.38Q34.90-8.22 33.77-8.22L33.77-8.22Q32.24-8.22 32.12-5.77L32.12-5.77ZM49.72 0L46.43 0Q46.25-0.32 46.11-0.95L46.11-0.95Q45.21 0.20 43.57 0.20L43.57 0.20Q42.08 0.20 41.04-0.71Q39.99-1.61 39.99-2.98L39.99-2.98Q39.99-4.70 41.26-5.58Q42.53-6.46 44.95-6.46L44.95-6.46L45.97-6.46L45.97-7.01Q45.97-8.47 44.71-8.47L44.71-8.47Q43.54-8.47 43.54-7.31L43.54-7.31L40.24-7.31Q40.24-8.85 41.55-9.80Q42.85-10.76 44.87-10.76Q46.89-10.76 48.07-9.78Q49.24-8.79 49.27-7.07L49.27-7.07L49.27-2.39Q49.29-0.94 49.72-0.17L49.72-0.17L49.72 0ZM44.37-2.15L44.37-2.15Q44.98-2.15 45.39-2.41Q45.79-2.68 45.97-3.01L45.97-3.01L45.97-4.70L45.01-4.70Q43.29-4.70 43.29-3.15L43.29-3.15Q43.29-2.71 43.59-2.43Q43.90-2.15 44.37-2.15Z"></path></g></g></svg>